<svg width="137" height="22" viewBox="0 0 137 22" fill="none" xmlns="http://www.w3.org/2000/svg">
<g clip-path="url(#clip0_2119_22309)">
<path d="M8.33536 0.832031H2.75779C2.12652 0.832031 1.63908 0.999838 1.30347 1.33545C0.967855 1.67106 0.800049 2.1585 0.800049 2.78977V19.1549C0.800049 19.7862 0.967855 20.2736 1.30347 20.6092C1.63908 20.9448 2.12652 21.1126 2.75779 21.1126H8.33536C10.0454 21.1126 11.5556 20.8889 12.8661 20.4334C14.1766 19.9859 15.2953 19.3227 16.2063 18.4597C17.1172 17.5967 17.8044 16.5339 18.2759 15.2794C18.7473 14.0248 18.9791 12.5785 18.9791 10.9484C18.9791 7.68812 18.0521 5.18701 16.2063 3.43703C14.3524 1.70303 11.7314 0.832031 8.33536 0.832031ZM14.696 14.0807C14.4083 14.9757 13.9689 15.7109 13.3855 16.2942C12.8022 16.8775 12.075 17.317 11.1961 17.6207C10.3251 17.9163 9.29425 18.0681 8.10362 18.0681H4.47581V3.87652H8.10362C10.4449 3.87652 12.1949 4.45985 13.3695 5.63449C14.5362 6.80114 15.1275 8.5751 15.1275 10.9563C15.1275 12.147 14.9837 13.1858 14.696 14.0807Z" fill="black"/>
<path d="M31.3089 2.15031C31.0612 1.59095 30.7576 1.19941 30.406 0.959683C30.0544 0.719959 29.6548 0.600098 29.2153 0.600098C28.7758 0.600098 28.3443 0.719959 27.9927 0.959683C27.6411 1.19941 27.3375 1.59895 27.0898 2.15031L19.4985 18.9789C19.3068 19.4184 19.2428 19.8179 19.2988 20.1695C19.3547 20.5211 19.5225 20.8088 19.8022 21.0165C20.0819 21.2243 20.4494 21.3362 20.9129 21.3362C21.4083 21.3362 21.7919 21.2083 22.0636 20.9606C22.3353 20.7129 22.591 20.3054 22.8387 19.754L24.2531 16.4139H34.1456L35.584 19.754C35.8157 20.2894 36.0794 20.6889 36.3751 20.9446C36.6707 21.2003 37.0862 21.3362 37.6296 21.3362C38.0691 21.3362 38.4287 21.2323 38.6924 21.0325C38.9641 20.8328 39.1239 20.5451 39.1798 20.1855C39.2358 19.8179 39.1639 19.4184 38.9481 18.9789L31.3089 2.15031ZM29.1514 4.82722H29.2073L32.8751 13.4892H25.5076L29.1514 4.82722Z" fill="black"/>
<path d="M53.707 10.6444C54.554 10.3248 55.2492 9.84532 55.7926 9.19807C56.5038 8.35105 56.8553 7.32023 56.8553 6.08965C56.8553 4.99492 56.5917 4.06 56.0643 3.26891C55.5369 2.48581 54.7777 1.87851 53.7789 1.455C52.7801 1.03149 51.5734 0.82373 50.1511 0.82373H43.247C42.6158 0.82373 42.1283 0.991537 41.7927 1.32715C41.4571 1.66276 41.2893 2.1502 41.2893 2.78147V19.1466C41.2893 19.7779 41.4571 20.2653 41.7927 20.6009C42.1283 20.9365 42.6158 21.1043 43.247 21.1043H50.4707C52.6362 21.1043 54.3303 20.6089 55.5449 19.626C56.7595 18.6352 57.3748 17.2448 57.3748 15.4389C57.3748 14.0565 56.9832 12.9378 56.1921 12.0747C55.5688 11.3875 54.7298 10.9161 53.707 10.6444ZM44.8292 3.6205H49.5198C50.7824 3.6205 51.7333 3.86822 52.3565 4.35565C52.9798 4.84309 53.2915 5.57025 53.2915 6.52915C53.2915 7.48804 52.9798 8.2152 52.3565 8.70264C51.7333 9.19008 50.7903 9.43779 49.5198 9.43779H44.8292V3.6205ZM52.8839 17.5564C52.2686 18.0678 51.3097 18.3155 50.0073 18.3155H44.8292V12.2186H50.0073C51.3097 12.2186 52.2686 12.4663 52.8839 12.9697C53.4992 13.4651 53.8029 14.2323 53.8029 15.2711C53.8029 16.3099 53.4992 17.053 52.8839 17.5564Z" fill="black"/>
<path d="M71.846 6.81689C71.2706 6.81689 70.8311 6.96872 70.5195 7.26438C70.2158 7.56004 70.056 8.01551 70.056 8.6308V14.9595C70.056 16.0542 69.7524 16.9332 69.1371 17.5885C68.5218 18.2517 67.7387 18.5793 66.7798 18.5793C65.9008 18.5793 65.2536 18.3396 64.854 17.8602C64.4545 17.3807 64.2467 16.6456 64.2467 15.6467V8.6308C64.2467 8.01551 64.0869 7.56004 63.7753 7.26438C63.4556 6.96872 63.0161 6.81689 62.4408 6.81689C61.8655 6.81689 61.426 6.96872 61.1143 7.26438C60.8107 7.56004 60.6509 8.01551 60.6509 8.6308V15.5908C60.6509 16.8773 60.8347 17.9481 61.2102 18.8111C61.5858 19.6741 62.1531 20.3213 62.9203 20.7528C63.6874 21.1843 64.6543 21.4001 65.8289 21.4001C67.0035 21.4001 67.9065 21.1204 68.7216 20.569C69.3049 20.1695 69.7763 19.6501 70.1439 19.0108V19.5063C70.1439 20.0976 70.2958 20.553 70.6074 20.8727C70.911 21.1923 71.3425 21.3441 71.9019 21.3441C73.0686 21.3441 73.6599 20.7288 73.6599 19.5063V8.6308C73.6599 8.01551 73.5001 7.56004 73.1884 7.26438C72.8688 6.96872 72.4293 6.81689 71.854 6.81689H71.846Z" fill="black"/>
<path d="M88.7546 7.64796C87.8357 7.05665 86.7489 6.753 85.5024 6.753C84.3357 6.753 83.3049 7.04067 82.4259 7.616C81.7946 8.02353 81.3232 8.52695 80.9876 9.12626V2.414C80.9876 1.82269 80.8278 1.36721 80.5161 1.06356C80.2045 0.759913 79.757 0.600098 79.1817 0.600098C78.6063 0.600098 78.1668 0.751922 77.8552 1.06356C77.5515 1.36721 77.3917 1.82269 77.3917 2.414V19.4983C77.3917 20.0896 77.5435 20.5451 77.8552 20.8647C78.1588 21.1843 78.6063 21.3362 79.1817 21.3362C79.757 21.3362 80.1725 21.1764 80.4762 20.8647C80.7798 20.5451 80.9396 20.0896 80.9396 19.4983V18.899C81.2673 19.5382 81.7467 20.0736 82.394 20.5051C83.2889 21.0964 84.3277 21.4001 85.5183 21.4001C86.709 21.4001 87.8277 21.1044 88.7546 20.5051C89.6815 19.9138 90.4087 19.0588 90.9281 17.9561C91.4475 16.8533 91.7032 15.5508 91.7032 14.0566C91.7032 12.5623 91.4475 11.2438 90.9281 10.1571C90.4087 9.07032 89.6895 8.23129 88.7706 7.63997L88.7546 7.64796ZM87.6199 16.6056C87.3243 17.2848 86.9087 17.7963 86.3654 18.1478C85.822 18.4994 85.2067 18.6672 84.4955 18.6672C83.4248 18.6672 82.5618 18.2757 81.9065 17.5006C81.2513 16.7255 80.9316 15.5748 80.9316 14.0646C80.9316 13.0497 81.0835 12.2027 81.3791 11.5155C81.6748 10.8363 82.0903 10.3249 82.6337 9.98926C83.1691 9.65365 83.7923 9.48584 84.5035 9.48584C85.5743 9.48584 86.4373 9.86141 87.0925 10.6205C87.7478 11.3797 88.0674 12.5223 88.0674 14.0566C88.0674 15.0714 87.9156 15.9184 87.6199 16.6056Z" fill="black"/>
<path d="M106.015 7.64796C105.096 7.05665 104.009 6.753 102.762 6.753C101.596 6.753 100.565 7.04067 99.6859 7.616C99.0547 8.02353 98.5832 8.52695 98.2476 9.12626V2.414C98.2476 1.82269 98.0878 1.36721 97.7761 1.06356C97.4645 0.759913 97.017 0.600098 96.4417 0.600098C95.8663 0.600098 95.4268 0.751922 95.1152 1.06356C94.8116 1.36721 94.6517 1.82269 94.6517 2.414V19.4983C94.6517 20.0896 94.8036 20.5451 95.1152 20.8647C95.4188 21.1843 95.8663 21.3362 96.4417 21.3362C97.017 21.3362 97.4325 21.1764 97.7362 20.8647C98.0398 20.5451 98.1996 20.0896 98.1996 19.4983V18.899C98.5273 19.5382 99.0067 20.0736 99.654 20.5051C100.549 21.0964 101.588 21.4001 102.778 21.4001C103.969 21.4001 105.088 21.1044 106.015 20.5051C106.942 19.9138 107.669 19.0588 108.188 17.9561C108.708 16.8533 108.963 15.5508 108.963 14.0566C108.963 12.5623 108.708 11.2438 108.188 10.1571C107.669 9.07032 106.95 8.23129 106.031 7.63997L106.015 7.64796ZM104.88 16.6056C104.584 17.2848 104.169 17.7963 103.625 18.1478C103.082 18.4994 102.467 18.6672 101.756 18.6672C100.685 18.6672 99.8218 18.2757 99.1665 17.5006C98.5113 16.7255 98.1916 15.5748 98.1916 14.0646C98.1916 13.0497 98.3435 12.2027 98.6391 11.5155C98.9348 10.8363 99.3503 10.3249 99.8937 9.98926C100.429 9.65365 101.052 9.48584 101.764 9.48584C102.834 9.48584 103.697 9.86141 104.353 10.6205C105.008 11.3797 105.327 12.5223 105.327 14.0566C105.327 15.0714 105.176 15.9184 104.88 16.6056Z" fill="black"/>
<path d="M118.504 18.3796C118.368 18.3956 118.233 18.4115 118.105 18.4195C117.969 18.4275 117.825 18.4355 117.673 18.4355C116.986 18.4355 116.451 18.2278 116.075 17.8042C115.7 17.3807 115.516 16.7335 115.516 15.8465V2.414C115.516 1.82269 115.356 1.36721 115.044 1.06356C114.733 0.759913 114.285 0.600098 113.71 0.600098C113.135 0.600098 112.695 0.751922 112.383 1.06356C112.08 1.36721 111.92 1.82269 111.92 2.414V16.0223C111.92 17.7883 112.319 19.1227 113.127 20.0337C113.934 20.9446 115.132 21.4001 116.722 21.4001C116.93 21.4001 117.146 21.3921 117.354 21.3681C117.561 21.3522 117.769 21.3282 117.961 21.3122C118.4 21.2563 118.72 21.0885 118.912 20.8248C119.104 20.5531 119.2 20.1855 119.2 19.7061C119.2 19.1467 119.152 18.7791 119.056 18.5953C118.96 18.4115 118.776 18.3396 118.512 18.3796H118.504Z" fill="black"/>
<path d="M132.456 17.5323C132.152 17.5004 131.793 17.6042 131.393 17.836C130.834 18.1396 130.251 18.3554 129.627 18.4832C129.004 18.6111 128.445 18.667 127.941 18.667C126.503 18.667 125.416 18.2755 124.673 17.5004C124.09 16.8851 123.746 16.0141 123.626 14.8954H132.312C132.752 14.8954 133.095 14.8075 133.335 14.6237C133.575 14.4399 133.695 14.1762 133.695 13.8326C133.695 12.7378 133.543 11.755 133.247 10.884C132.951 10.013 132.52 9.26985 131.953 8.65456C131.385 8.03927 130.706 7.56781 129.907 7.24818C129.108 6.92056 128.213 6.76074 127.214 6.76074C125.856 6.76074 124.641 7.07238 123.578 7.69566C122.515 8.31894 121.676 9.17396 121.077 10.2687C120.47 11.3634 120.174 12.634 120.174 14.0963C120.174 15.5586 120.486 16.8851 121.109 17.9798C121.732 19.0745 122.619 19.9136 123.77 20.5129C124.921 21.1042 126.295 21.4078 127.885 21.4078C128.636 21.4078 129.444 21.304 130.314 21.1042C131.185 20.9044 131.961 20.5928 132.632 20.1693C132.975 19.9615 133.223 19.7058 133.367 19.4181C133.511 19.1305 133.567 18.8508 133.527 18.5711C133.487 18.2914 133.375 18.0597 133.199 17.8679C133.015 17.6761 132.776 17.5643 132.464 17.5403L132.456 17.5323ZM125.304 9.76528C125.872 9.38971 126.559 9.20592 127.358 9.20592C128.085 9.20592 128.692 9.36574 129.188 9.67738C129.675 9.99701 130.051 10.4525 130.307 11.0438C130.522 11.5392 130.642 12.1385 130.682 12.8257H123.626C123.698 12.2824 123.818 11.779 124.01 11.3475C124.305 10.6682 124.737 10.1408 125.304 9.76528Z" fill="black"/>
</g>
<defs>
<clipPath id="clip0_2119_22309">
<rect width="135.292" height="20.8" fill="white" transform="translate(0.800049 0.600098)"/>
</clipPath>
</defs>
</svg>
